<svg xmlns="http://www.w3.org/2000/svg" width="379.119" height="252.033" viewBox="230.367 637.374 284.339 189.025">
  <g fill="none" stroke="#ecebe3" stroke-linecap="round" stroke-linejoin="round" stroke-width="8">
    <path d="M509.288 641.512q-.104-.223.74 4.385.844 4.609.658 9.22-.185 4.612-1.197 9.405-1.012 4.794-1.912 8.335-.9 3.54-2.162 8.146-1.262 4.606-3.589 9.53-2.326 4.924-5.041 9.185-2.714 4.26-4.173 6.497-1.46 2.237-5.875 7.445-4.416 5.208-7.168 7.925-2.753 2.717-5.698 5.439-2.944 2.723-7.022 5.87-4.077 3.147-8.018 5.615-3.941 2.467-9.127 5.137-5.187 2.67-8.678 4.141-3.492 1.472-8.156 2.771-4.663 1.3-8.647 1.803-3.985.503-7.037.724-3.052.221-5.894-.105t-5.617-1.396q-2.775-1.07-4.574-2.669-1.798-1.599-3.07-3.869-1.272-2.27-1.577-4.829-.306-2.558.225-5.174.532-2.615 2.094-5.273 1.562-2.658 2.558-4.189.995-1.532 3.566-4.563 2.572-3.032 4.64-4.999 2.069-1.968 6.613-5.045 4.545-3.078 9.327-5.182 4.783-2.104 7.423-3.061 2.641-.958 4.398-1.353 1.758-.395 5.927-1.57t11.02-1.922q6.852-.748 12.087-.572 5.234.176 7.961.359 2.727.183 7.659 1.269 4.932 1.086 9.356 2.863 4.425 1.776 6.884 3.194 2.459 1.418 3.609 2.243 1.149.826 2.476 2.429 1.327 1.603 2.119 3.21.792 1.607 1.535 4.391.742 2.784-.24 6.238-.981 3.454-2.039 5.384-1.057 1.93-2.053 3.998-.996 2.067-4.222 6.611-3.225 4.543-5.652 7.335-2.426 2.792-4.93 5.103-2.504 2.311-4.371 4.048-1.868 1.737-7.023 5.383-5.156 3.645-8.585 5.618-3.43 1.973-6.916 3.866-3.485 1.893-7.084 3.565-3.598 1.672-9.379 4.018-5.781 2.345-13.333 4.71-7.552 2.366-11.459 3.478-3.906 1.112-9.43 2.479-5.523 1.367-9.14 2.18-3.618.813-9.035 1.864-5.417 1.051-10.619 1.874-5.201.823-9.23 1.472-4.029.649-16.064 2.18-12.036 1.531-19.873 2.153l-11.611.922q-3.774.301-12.714.725-8.94.424-14.372.611-5.432.186-8.026.31-2.594.125-5.766.232-3.173.108-11.193.392-8.02.283-15.06.474-7.04.192-14.308-.083"/>
    <path d="M266.064 780.568q-.593-.042 2.348-.972.337.803.203.587-.016 1.433-.02.972-.147.893-.162.83.192.867-2.629 3.691-2.821 2.825-4.635 4.246-1.814 1.422-3.075 2.604-1.262 1.182-5.242 3.518-3.979 2.336-5.681 3.175-1.702.84-4.286 2.213-2.584 1.373-5.159 2.696.162.074.381-.034.219-.107 1.624-.132 1.405-.024 2.739.221 1.334.246 2.21.385.876.139 4.374 2.251 3.499 2.112 7.338 4.033 3.838 1.921 7.725 3.099 3.886 1.178 7.68 2.066 3.794.889 6.596 1.734t5.079 2.125"/>
  </g>
</svg>