<svg xmlns="http://www.w3.org/2000/svg" width="224.423" height="113.812" viewBox="-86.158 811.223 168.317 85.359">
  <path fill="none" stroke="#ecebe3" stroke-linecap="round" stroke-linejoin="round" stroke-width="8" d="M-81.864 813.913q-.908.057-1.745 1.014.369.286.981.62.611.335.56.301-.051-.034.413 0 .464.033.734.08.271.046.607.118.336.071 4.041.471 3.704.399 8.407.347 4.703-.052 10.205-.071 5.502-.02 12.945.064 7.444.084 16.47.062 9.027-.022 23.418.043 14.392.065 26.234.145 11.843.079 22.591-.045 10.749-.123 15.795-.168 5.045-.045 9.469.199 4.423.243 8.115 1.112-.842.732-.549.621.294-.111.018.022-.276.132-1.086.418t-1.851.44q-1.041.153-1.961.448-.921.294-7.725 1.023-6.804.73-11.415 1.229-4.61.5-7.374.787-2.765.287-3.93.427l-3.908.467q-2.742.328-9.266 1.086-6.525.759-15.7 2.223-9.175 1.463-14.203 2.251-5.029.787-14.207 2.444-9.179 1.656-15.01 2.742-5.83 1.086-11.735 2.286 1.04.325 1.081.293.041-.031.047-.016.006.016-.041.065-.048.048 10.063-.191 10.111-.238 21.51-.359 11.399-.12 17.817.105 6.418.224 9.796.481 3.379.257 6.606.871 3.227.613 4.721.885 1.494.272 2.346.687.852.414 1.257 1.138.406.724.181 1.513-.225.789-1.842 1.428-1.617.64-2.879 1.236-1.263.597-6.497 2.055-5.235 1.457-15.519 3.713-10.283 2.256-20.818 4.515v.023q-1.078.144 1.847-.001 2.926-.146 5.412.143 2.486.29 4.214.994 1.728.704 3.864 2.43 2.137 1.726 3.185 4.349 1.048 2.622 1.064 5.569.017 2.946-1.16 5.787-1.176 2.842-2.058 4.482-.882 1.64-3.978 5.81-3.097 4.169-6.635 9.162"/>
</svg>